<mxfile host="app.diagrams.net" modified="2024-05-14T00:43:10.555Z" agent="Mozilla/5.0 (Windows NT 10.0; Win64; x64) AppleWebKit/537.36 (KHTML, like Gecko) Chrome/122.0.0.0 Safari/537.36" etag="dZ9yj8t0ZYf-O21yV-mS" version="24.4.0" type="github">
  <diagram id="C5RBs43oDa-KdzZeNtuy" name="Page-1">
    <mxGraphModel dx="989" dy="514" grid="1" gridSize="10" guides="1" tooltips="1" connect="1" arrows="1" fold="1" page="1" pageScale="1" pageWidth="827" pageHeight="1169" math="0" shadow="0">
      <root>
        <mxCell id="WIyWlLk6GJQsqaUBKTNV-0" />
        <mxCell id="WIyWlLk6GJQsqaUBKTNV-1" parent="WIyWlLk6GJQsqaUBKTNV-0" />
        <mxCell id="zkfFHV4jXpPFQw0GAbJ--0" value="Aluno" style="swimlane;fontStyle=1;align=center;verticalAlign=top;childLayout=stackLayout;horizontal=1;startSize=26;horizontalStack=0;resizeParent=1;resizeLast=0;collapsible=1;marginBottom=0;rounded=0;shadow=0;strokeWidth=1;" parent="WIyWlLk6GJQsqaUBKTNV-1" vertex="1">
          <mxGeometry x="304" y="40" width="220" height="180" as="geometry">
            <mxRectangle x="230" y="140" width="160" height="26" as="alternateBounds" />
          </mxGeometry>
        </mxCell>
        <mxCell id="jQ-A_jj9nDci3lVpJSi4-4" value="" style="group" vertex="1" connectable="0" parent="zkfFHV4jXpPFQw0GAbJ--0">
          <mxGeometry y="26" width="220" height="26" as="geometry" />
        </mxCell>
        <mxCell id="zkfFHV4jXpPFQw0GAbJ--1" value="varchar(9)" style="text;align=right;verticalAlign=top;spacingLeft=4;spacingRight=4;overflow=hidden;rotatable=0;points=[[0,0.5],[1,0.5]];portConstraint=eastwest;fontStyle=0" parent="jQ-A_jj9nDci3lVpJSi4-4" vertex="1">
          <mxGeometry x="140" width="80" height="26" as="geometry" />
        </mxCell>
        <mxCell id="jQ-A_jj9nDci3lVpJSi4-0" value="í ½í´‘ ra" style="text;align=left;verticalAlign=top;spacingLeft=4;spacingRight=4;overflow=hidden;rotatable=0;points=[[0,0.5],[1,0.5]];portConstraint=eastwest;fontStyle=1;rounded=1;fontSize=12;" vertex="1" parent="jQ-A_jj9nDci3lVpJSi4-4">
          <mxGeometry width="90" height="26" as="geometry" />
        </mxCell>
        <mxCell id="zkfFHV4jXpPFQw0GAbJ--4" value="" style="line;html=1;strokeWidth=1;align=left;verticalAlign=middle;spacingTop=-1;spacingLeft=3;spacingRight=3;rotatable=0;labelPosition=right;points=[];portConstraint=eastwest;" parent="zkfFHV4jXpPFQw0GAbJ--0" vertex="1">
          <mxGeometry y="52" width="220" height="8" as="geometry" />
        </mxCell>
        <mxCell id="jQ-A_jj9nDci3lVpJSi4-14" value="" style="group" vertex="1" connectable="0" parent="zkfFHV4jXpPFQw0GAbJ--0">
          <mxGeometry y="60" width="220" height="30" as="geometry" />
        </mxCell>
        <mxCell id="jQ-A_jj9nDci3lVpJSi4-15" value="varchar(50)" style="text;align=right;verticalAlign=top;spacingLeft=4;spacingRight=4;overflow=hidden;rotatable=0;points=[[0,0.5],[1,0.5]];portConstraint=eastwest;fontStyle=0" vertex="1" parent="jQ-A_jj9nDci3lVpJSi4-14">
          <mxGeometry x="140" width="80" height="29.999999999999996" as="geometry" />
        </mxCell>
        <mxCell id="jQ-A_jj9nDci3lVpJSi4-16" value="nome" style="text;align=left;verticalAlign=top;spacingLeft=4;spacingRight=4;overflow=hidden;rotatable=0;points=[[0,0.5],[1,0.5]];portConstraint=eastwest;fontStyle=1;rounded=1;fontSize=12;" vertex="1" parent="jQ-A_jj9nDci3lVpJSi4-14">
          <mxGeometry width="90" height="29.999999999999996" as="geometry" />
        </mxCell>
        <mxCell id="jQ-A_jj9nDci3lVpJSi4-20" value="" style="group" vertex="1" connectable="0" parent="zkfFHV4jXpPFQw0GAbJ--0">
          <mxGeometry y="90" width="220" height="30" as="geometry" />
        </mxCell>
        <mxCell id="jQ-A_jj9nDci3lVpJSi4-21" value="varchar(50)" style="text;align=right;verticalAlign=top;spacingLeft=4;spacingRight=4;overflow=hidden;rotatable=0;points=[[0,0.5],[1,0.5]];portConstraint=eastwest;fontStyle=0" vertex="1" parent="jQ-A_jj9nDci3lVpJSi4-20">
          <mxGeometry x="140" width="80" height="29.999999999999996" as="geometry" />
        </mxCell>
        <mxCell id="jQ-A_jj9nDci3lVpJSi4-22" value="email" style="text;align=left;verticalAlign=top;spacingLeft=4;spacingRight=4;overflow=hidden;rotatable=0;points=[[0,0.5],[1,0.5]];portConstraint=eastwest;fontStyle=1;rounded=1;fontSize=12;" vertex="1" parent="jQ-A_jj9nDci3lVpJSi4-20">
          <mxGeometry width="90" height="29.999999999999996" as="geometry" />
        </mxCell>
        <mxCell id="jQ-A_jj9nDci3lVpJSi4-23" value="" style="group" vertex="1" connectable="0" parent="zkfFHV4jXpPFQw0GAbJ--0">
          <mxGeometry y="120" width="220" height="30" as="geometry" />
        </mxCell>
        <mxCell id="jQ-A_jj9nDci3lVpJSi4-24" value="varchar(13)" style="text;align=right;verticalAlign=top;spacingLeft=4;spacingRight=4;overflow=hidden;rotatable=0;points=[[0,0.5],[1,0.5]];portConstraint=eastwest;fontStyle=0" vertex="1" parent="jQ-A_jj9nDci3lVpJSi4-23">
          <mxGeometry x="140" width="80" height="29.999999999999996" as="geometry" />
        </mxCell>
        <mxCell id="jQ-A_jj9nDci3lVpJSi4-25" value="telefone" style="text;align=left;verticalAlign=top;spacingLeft=4;spacingRight=4;overflow=hidden;rotatable=0;points=[[0,0.5],[1,0.5]];portConstraint=eastwest;fontStyle=1;rounded=1;fontSize=12;" vertex="1" parent="jQ-A_jj9nDci3lVpJSi4-23">
          <mxGeometry width="90" height="29.999999999999996" as="geometry" />
        </mxCell>
        <mxCell id="jQ-A_jj9nDci3lVpJSi4-26" value="" style="group" vertex="1" connectable="0" parent="zkfFHV4jXpPFQw0GAbJ--0">
          <mxGeometry y="150" width="220" height="30" as="geometry" />
        </mxCell>
        <mxCell id="jQ-A_jj9nDci3lVpJSi4-27" value="varchar(20)" style="text;align=right;verticalAlign=top;spacingLeft=4;spacingRight=4;overflow=hidden;rotatable=0;points=[[0,0.5],[1,0.5]];portConstraint=eastwest;fontStyle=0" vertex="1" parent="jQ-A_jj9nDci3lVpJSi4-26">
          <mxGeometry x="140" width="80" height="29.999999999999996" as="geometry" />
        </mxCell>
        <mxCell id="jQ-A_jj9nDci3lVpJSi4-28" value="nome_departamento" style="text;align=left;verticalAlign=top;spacingLeft=4;spacingRight=4;overflow=hidden;rotatable=0;points=[[0,0.5],[1,0.5]];portConstraint=eastwest;fontStyle=1;rounded=1;fontSize=12;" vertex="1" parent="jQ-A_jj9nDci3lVpJSi4-26">
          <mxGeometry width="160" height="30" as="geometry" />
        </mxCell>
        <mxCell id="jQ-A_jj9nDci3lVpJSi4-29" value="Professor" style="swimlane;fontStyle=1;align=center;verticalAlign=top;childLayout=stackLayout;horizontal=1;startSize=26;horizontalStack=0;resizeParent=1;resizeLast=0;collapsible=1;marginBottom=0;rounded=0;shadow=0;strokeWidth=1;" vertex="1" parent="WIyWlLk6GJQsqaUBKTNV-1">
          <mxGeometry x="580" y="40" width="220" height="210" as="geometry">
            <mxRectangle x="230" y="140" width="160" height="26" as="alternateBounds" />
          </mxGeometry>
        </mxCell>
        <mxCell id="jQ-A_jj9nDci3lVpJSi4-30" value="" style="group" vertex="1" connectable="0" parent="jQ-A_jj9nDci3lVpJSi4-29">
          <mxGeometry y="26" width="220" height="26" as="geometry" />
        </mxCell>
        <mxCell id="jQ-A_jj9nDci3lVpJSi4-31" value="varchar(9)" style="text;align=right;verticalAlign=top;spacingLeft=4;spacingRight=4;overflow=hidden;rotatable=0;points=[[0,0.5],[1,0.5]];portConstraint=eastwest;fontStyle=0" vertex="1" parent="jQ-A_jj9nDci3lVpJSi4-30">
          <mxGeometry x="140" width="80" height="26" as="geometry" />
        </mxCell>
        <mxCell id="jQ-A_jj9nDci3lVpJSi4-32" value="í ½í´‘ id" style="text;align=left;verticalAlign=top;spacingLeft=4;spacingRight=4;overflow=hidden;rotatable=0;points=[[0,0.5],[1,0.5]];portConstraint=eastwest;fontStyle=1;rounded=1;fontSize=12;" vertex="1" parent="jQ-A_jj9nDci3lVpJSi4-30">
          <mxGeometry width="90" height="26" as="geometry" />
        </mxCell>
        <mxCell id="jQ-A_jj9nDci3lVpJSi4-33" value="" style="line;html=1;strokeWidth=1;align=left;verticalAlign=middle;spacingTop=-1;spacingLeft=3;spacingRight=3;rotatable=0;labelPosition=right;points=[];portConstraint=eastwest;" vertex="1" parent="jQ-A_jj9nDci3lVpJSi4-29">
          <mxGeometry y="52" width="220" height="8" as="geometry" />
        </mxCell>
        <mxCell id="jQ-A_jj9nDci3lVpJSi4-34" value="" style="group" vertex="1" connectable="0" parent="jQ-A_jj9nDci3lVpJSi4-29">
          <mxGeometry y="60" width="220" height="30" as="geometry" />
        </mxCell>
        <mxCell id="jQ-A_jj9nDci3lVpJSi4-35" value="varchar(50)" style="text;align=right;verticalAlign=top;spacingLeft=4;spacingRight=4;overflow=hidden;rotatable=0;points=[[0,0.5],[1,0.5]];portConstraint=eastwest;fontStyle=0" vertex="1" parent="jQ-A_jj9nDci3lVpJSi4-34">
          <mxGeometry x="140" width="80" height="29.999999999999996" as="geometry" />
        </mxCell>
        <mxCell id="jQ-A_jj9nDci3lVpJSi4-36" value="nome" style="text;align=left;verticalAlign=top;spacingLeft=4;spacingRight=4;overflow=hidden;rotatable=0;points=[[0,0.5],[1,0.5]];portConstraint=eastwest;fontStyle=1;rounded=1;fontSize=12;" vertex="1" parent="jQ-A_jj9nDci3lVpJSi4-34">
          <mxGeometry width="90" height="29.999999999999996" as="geometry" />
        </mxCell>
        <mxCell id="jQ-A_jj9nDci3lVpJSi4-37" value="" style="group" vertex="1" connectable="0" parent="jQ-A_jj9nDci3lVpJSi4-29">
          <mxGeometry y="90" width="220" height="30" as="geometry" />
        </mxCell>
        <mxCell id="jQ-A_jj9nDci3lVpJSi4-38" value="varchar(50)" style="text;align=right;verticalAlign=top;spacingLeft=4;spacingRight=4;overflow=hidden;rotatable=0;points=[[0,0.5],[1,0.5]];portConstraint=eastwest;fontStyle=0" vertex="1" parent="jQ-A_jj9nDci3lVpJSi4-37">
          <mxGeometry x="140" width="80" height="29.999999999999996" as="geometry" />
        </mxCell>
        <mxCell id="jQ-A_jj9nDci3lVpJSi4-39" value="email" style="text;align=left;verticalAlign=top;spacingLeft=4;spacingRight=4;overflow=hidden;rotatable=0;points=[[0,0.5],[1,0.5]];portConstraint=eastwest;fontStyle=1;rounded=1;fontSize=12;" vertex="1" parent="jQ-A_jj9nDci3lVpJSi4-37">
          <mxGeometry width="90" height="29.999999999999996" as="geometry" />
        </mxCell>
        <mxCell id="jQ-A_jj9nDci3lVpJSi4-40" value="" style="group" vertex="1" connectable="0" parent="jQ-A_jj9nDci3lVpJSi4-29">
          <mxGeometry y="120" width="220" height="30" as="geometry" />
        </mxCell>
        <mxCell id="jQ-A_jj9nDci3lVpJSi4-41" value="varchar(13)" style="text;align=right;verticalAlign=top;spacingLeft=4;spacingRight=4;overflow=hidden;rotatable=0;points=[[0,0.5],[1,0.5]];portConstraint=eastwest;fontStyle=0" vertex="1" parent="jQ-A_jj9nDci3lVpJSi4-40">
          <mxGeometry x="140" width="80" height="29.999999999999996" as="geometry" />
        </mxCell>
        <mxCell id="jQ-A_jj9nDci3lVpJSi4-42" value="telefone" style="text;align=left;verticalAlign=top;spacingLeft=4;spacingRight=4;overflow=hidden;rotatable=0;points=[[0,0.5],[1,0.5]];portConstraint=eastwest;fontStyle=1;rounded=1;fontSize=12;" vertex="1" parent="jQ-A_jj9nDci3lVpJSi4-40">
          <mxGeometry width="90" height="29.999999999999996" as="geometry" />
        </mxCell>
        <mxCell id="jQ-A_jj9nDci3lVpJSi4-43" value="" style="group" vertex="1" connectable="0" parent="jQ-A_jj9nDci3lVpJSi4-29">
          <mxGeometry y="150" width="220" height="30" as="geometry" />
        </mxCell>
        <mxCell id="jQ-A_jj9nDci3lVpJSi4-44" value="varchar(20)" style="text;align=right;verticalAlign=top;spacingLeft=4;spacingRight=4;overflow=hidden;rotatable=0;points=[[0,0.5],[1,0.5]];portConstraint=eastwest;fontStyle=0" vertex="1" parent="jQ-A_jj9nDci3lVpJSi4-43">
          <mxGeometry x="140" width="80" height="29.999999999999996" as="geometry" />
        </mxCell>
        <mxCell id="jQ-A_jj9nDci3lVpJSi4-45" value="nome_departamento" style="text;align=left;verticalAlign=top;spacingLeft=4;spacingRight=4;overflow=hidden;rotatable=0;points=[[0,0.5],[1,0.5]];portConstraint=eastwest;fontStyle=1;rounded=1;fontSize=12;" vertex="1" parent="jQ-A_jj9nDci3lVpJSi4-43">
          <mxGeometry width="160" height="30" as="geometry" />
        </mxCell>
        <mxCell id="jQ-A_jj9nDci3lVpJSi4-46" value="" style="group" vertex="1" connectable="0" parent="jQ-A_jj9nDci3lVpJSi4-29">
          <mxGeometry y="180" width="220" height="30" as="geometry" />
        </mxCell>
        <mxCell id="jQ-A_jj9nDci3lVpJSi4-47" value="numeric(8, 2)" style="text;align=right;verticalAlign=top;spacingLeft=4;spacingRight=4;overflow=hidden;rotatable=0;points=[[0,0.5],[1,0.5]];portConstraint=eastwest;fontStyle=0" vertex="1" parent="jQ-A_jj9nDci3lVpJSi4-46">
          <mxGeometry x="130" width="90" height="30" as="geometry" />
        </mxCell>
        <mxCell id="jQ-A_jj9nDci3lVpJSi4-48" value="salario" style="text;align=left;verticalAlign=top;spacingLeft=4;spacingRight=4;overflow=hidden;rotatable=0;points=[[0,0.5],[1,0.5]];portConstraint=eastwest;fontStyle=1;rounded=1;fontSize=12;" vertex="1" parent="jQ-A_jj9nDci3lVpJSi4-46">
          <mxGeometry width="130" height="30" as="geometry" />
        </mxCell>
        <mxCell id="jQ-A_jj9nDci3lVpJSi4-49" value="Cursa" style="swimlane;fontStyle=1;align=center;verticalAlign=top;childLayout=stackLayout;horizontal=1;startSize=26;horizontalStack=0;resizeParent=1;resizeLast=0;collapsible=1;marginBottom=0;rounded=0;shadow=0;strokeWidth=1;" vertex="1" parent="WIyWlLk6GJQsqaUBKTNV-1">
          <mxGeometry x="20" y="40" width="220" height="230" as="geometry">
            <mxRectangle x="230" y="140" width="160" height="26" as="alternateBounds" />
          </mxGeometry>
        </mxCell>
        <mxCell id="jQ-A_jj9nDci3lVpJSi4-50" value="" style="group" vertex="1" connectable="0" parent="jQ-A_jj9nDci3lVpJSi4-49">
          <mxGeometry y="26" width="220" height="130" as="geometry" />
        </mxCell>
        <mxCell id="jQ-A_jj9nDci3lVpJSi4-51" value="varchar(9)" style="text;align=right;verticalAlign=top;spacingLeft=4;spacingRight=4;overflow=hidden;rotatable=0;points=[[0,0.5],[1,0.5]];portConstraint=eastwest;fontStyle=0" vertex="1" parent="jQ-A_jj9nDci3lVpJSi4-50">
          <mxGeometry x="140" width="80" height="26" as="geometry" />
        </mxCell>
        <mxCell id="jQ-A_jj9nDci3lVpJSi4-52" value="í ½í´‘ id_curso" style="text;align=left;verticalAlign=top;spacingLeft=4;spacingRight=4;overflow=hidden;rotatable=0;points=[[0,0.5],[1,0.5]];portConstraint=eastwest;fontStyle=1;rounded=1;fontSize=12;" vertex="1" parent="jQ-A_jj9nDci3lVpJSi4-50">
          <mxGeometry width="90" height="26" as="geometry" />
        </mxCell>
        <mxCell id="jQ-A_jj9nDci3lVpJSi4-75" value="" style="group" vertex="1" connectable="0" parent="jQ-A_jj9nDci3lVpJSi4-50">
          <mxGeometry width="220" height="130" as="geometry" />
        </mxCell>
        <mxCell id="jQ-A_jj9nDci3lVpJSi4-76" value="varchar(9)" style="text;align=right;verticalAlign=top;spacingLeft=4;spacingRight=4;overflow=hidden;rotatable=0;points=[[0,0.5],[1,0.5]];portConstraint=eastwest;fontStyle=0" vertex="1" parent="jQ-A_jj9nDci3lVpJSi4-75">
          <mxGeometry x="140" width="80" height="26" as="geometry" />
        </mxCell>
        <mxCell id="jQ-A_jj9nDci3lVpJSi4-77" value="í ½í´‘ id_curso" style="text;align=left;verticalAlign=top;spacingLeft=4;spacingRight=4;overflow=hidden;rotatable=0;points=[[0,0.5],[1,0.5]];portConstraint=eastwest;fontStyle=1;rounded=1;fontSize=12;" vertex="1" parent="jQ-A_jj9nDci3lVpJSi4-75">
          <mxGeometry width="90" height="26" as="geometry" />
        </mxCell>
        <mxCell id="jQ-A_jj9nDci3lVpJSi4-78" value="" style="group" vertex="1" connectable="0" parent="jQ-A_jj9nDci3lVpJSi4-75">
          <mxGeometry y="26" width="220" height="104" as="geometry" />
        </mxCell>
        <mxCell id="jQ-A_jj9nDci3lVpJSi4-79" value="varchar(5)" style="text;align=right;verticalAlign=top;spacingLeft=4;spacingRight=4;overflow=hidden;rotatable=0;points=[[0,0.5],[1,0.5]];portConstraint=eastwest;fontStyle=0" vertex="1" parent="jQ-A_jj9nDci3lVpJSi4-78">
          <mxGeometry x="140" width="80" height="26" as="geometry" />
        </mxCell>
        <mxCell id="jQ-A_jj9nDci3lVpJSi4-80" value="í ½í´‘ id" style="text;align=left;verticalAlign=top;spacingLeft=4;spacingRight=4;overflow=hidden;rotatable=0;points=[[0,0.5],[1,0.5]];portConstraint=eastwest;fontStyle=1;rounded=1;fontSize=12;" vertex="1" parent="jQ-A_jj9nDci3lVpJSi4-78">
          <mxGeometry width="90" height="26" as="geometry" />
        </mxCell>
        <mxCell id="jQ-A_jj9nDci3lVpJSi4-81" value="" style="group" vertex="1" connectable="0" parent="jQ-A_jj9nDci3lVpJSi4-78">
          <mxGeometry y="26" width="220" height="78" as="geometry" />
        </mxCell>
        <mxCell id="jQ-A_jj9nDci3lVpJSi4-82" value="varchar(6)" style="text;align=right;verticalAlign=top;spacingLeft=4;spacingRight=4;overflow=hidden;rotatable=0;points=[[0,0.5],[1,0.5]];portConstraint=eastwest;fontStyle=0" vertex="1" parent="jQ-A_jj9nDci3lVpJSi4-81">
          <mxGeometry x="140" width="80" height="26" as="geometry" />
        </mxCell>
        <mxCell id="jQ-A_jj9nDci3lVpJSi4-83" value="í ½í´‘ codigo_disciplina" style="text;align=left;verticalAlign=top;spacingLeft=4;spacingRight=4;overflow=hidden;rotatable=0;points=[[0,0.5],[1,0.5]];portConstraint=eastwest;fontStyle=1;rounded=1;fontSize=12;" vertex="1" parent="jQ-A_jj9nDci3lVpJSi4-81">
          <mxGeometry width="140" height="26" as="geometry" />
        </mxCell>
        <mxCell id="jQ-A_jj9nDci3lVpJSi4-84" value="" style="group" vertex="1" connectable="0" parent="jQ-A_jj9nDci3lVpJSi4-81">
          <mxGeometry y="26" width="220" height="52" as="geometry" />
        </mxCell>
        <mxCell id="jQ-A_jj9nDci3lVpJSi4-85" value="numeric(1)" style="text;align=right;verticalAlign=top;spacingLeft=4;spacingRight=4;overflow=hidden;rotatable=0;points=[[0,0.5],[1,0.5]];portConstraint=eastwest;fontStyle=0" vertex="1" parent="jQ-A_jj9nDci3lVpJSi4-84">
          <mxGeometry x="140" width="80" height="26" as="geometry" />
        </mxCell>
        <mxCell id="jQ-A_jj9nDci3lVpJSi4-86" value="í ½í´‘ semestre" style="text;align=left;verticalAlign=top;spacingLeft=4;spacingRight=4;overflow=hidden;rotatable=0;points=[[0,0.5],[1,0.5]];portConstraint=eastwest;fontStyle=1;rounded=1;fontSize=12;" vertex="1" parent="jQ-A_jj9nDci3lVpJSi4-84">
          <mxGeometry width="140" height="26" as="geometry" />
        </mxCell>
        <mxCell id="jQ-A_jj9nDci3lVpJSi4-87" value="" style="group" vertex="1" connectable="0" parent="jQ-A_jj9nDci3lVpJSi4-84">
          <mxGeometry y="26" width="220" height="26" as="geometry" />
        </mxCell>
        <mxCell id="jQ-A_jj9nDci3lVpJSi4-88" value="numeric(4)" style="text;align=right;verticalAlign=top;spacingLeft=4;spacingRight=4;overflow=hidden;rotatable=0;points=[[0,0.5],[1,0.5]];portConstraint=eastwest;fontStyle=0" vertex="1" parent="jQ-A_jj9nDci3lVpJSi4-87">
          <mxGeometry x="140" width="80" height="26" as="geometry" />
        </mxCell>
        <mxCell id="jQ-A_jj9nDci3lVpJSi4-89" value="í ½í´‘ ano" style="text;align=left;verticalAlign=top;spacingLeft=4;spacingRight=4;overflow=hidden;rotatable=0;points=[[0,0.5],[1,0.5]];portConstraint=eastwest;fontStyle=1;rounded=1;fontSize=12;" vertex="1" parent="jQ-A_jj9nDci3lVpJSi4-87">
          <mxGeometry width="140" height="26" as="geometry" />
        </mxCell>
        <mxCell id="jQ-A_jj9nDci3lVpJSi4-53" value="" style="line;html=1;strokeWidth=1;align=left;verticalAlign=middle;spacingTop=-1;spacingLeft=3;spacingRight=3;rotatable=0;labelPosition=right;points=[];portConstraint=eastwest;" vertex="1" parent="jQ-A_jj9nDci3lVpJSi4-49">
          <mxGeometry y="156" width="220" height="8" as="geometry" />
        </mxCell>
        <mxCell id="jQ-A_jj9nDci3lVpJSi4-54" value="" style="group" vertex="1" connectable="0" parent="jQ-A_jj9nDci3lVpJSi4-49">
          <mxGeometry y="164" width="220" height="30" as="geometry" />
        </mxCell>
        <mxCell id="jQ-A_jj9nDci3lVpJSi4-55" value="numeric(2, 2)" style="text;align=right;verticalAlign=top;spacingLeft=4;spacingRight=4;overflow=hidden;rotatable=0;points=[[0,0.5],[1,0.5]];portConstraint=eastwest;fontStyle=0" vertex="1" parent="jQ-A_jj9nDci3lVpJSi4-54">
          <mxGeometry x="130" width="90" height="30" as="geometry" />
        </mxCell>
        <mxCell id="jQ-A_jj9nDci3lVpJSi4-56" value="media" style="text;align=left;verticalAlign=top;spacingLeft=4;spacingRight=4;overflow=hidden;rotatable=0;points=[[0,0.5],[1,0.5]];portConstraint=eastwest;fontStyle=1;rounded=1;fontSize=12;" vertex="1" parent="jQ-A_jj9nDci3lVpJSi4-54">
          <mxGeometry width="90" height="29.999999999999996" as="geometry" />
        </mxCell>
        <mxCell id="jQ-A_jj9nDci3lVpJSi4-57" value="" style="group" vertex="1" connectable="0" parent="jQ-A_jj9nDci3lVpJSi4-49">
          <mxGeometry y="194" width="220" height="26" as="geometry" />
        </mxCell>
        <mxCell id="jQ-A_jj9nDci3lVpJSi4-58" value="numeric(2)" style="text;align=right;verticalAlign=top;spacingLeft=4;spacingRight=4;overflow=hidden;rotatable=0;points=[[0,0.5],[1,0.5]];portConstraint=eastwest;fontStyle=0" vertex="1" parent="jQ-A_jj9nDci3lVpJSi4-57">
          <mxGeometry x="140" width="80" height="18.57142857142857" as="geometry" />
        </mxCell>
        <mxCell id="jQ-A_jj9nDci3lVpJSi4-59" value="faltas" style="text;align=left;verticalAlign=top;spacingLeft=4;spacingRight=4;overflow=hidden;rotatable=0;points=[[0,0.5],[1,0.5]];portConstraint=eastwest;fontStyle=1;rounded=1;fontSize=12;" vertex="1" parent="jQ-A_jj9nDci3lVpJSi4-57">
          <mxGeometry width="90" height="18.57142857142857" as="geometry" />
        </mxCell>
        <mxCell id="jQ-A_jj9nDci3lVpJSi4-90" value="Disciplina" style="swimlane;fontStyle=1;align=center;verticalAlign=top;childLayout=stackLayout;horizontal=1;startSize=26;horizontalStack=0;resizeParent=1;resizeLast=0;collapsible=1;marginBottom=0;rounded=0;shadow=0;strokeWidth=1;" vertex="1" parent="WIyWlLk6GJQsqaUBKTNV-1">
          <mxGeometry x="20" y="300" width="220" height="166" as="geometry">
            <mxRectangle x="230" y="140" width="160" height="26" as="alternateBounds" />
          </mxGeometry>
        </mxCell>
        <mxCell id="jQ-A_jj9nDci3lVpJSi4-91" value="" style="group" vertex="1" connectable="0" parent="jQ-A_jj9nDci3lVpJSi4-90">
          <mxGeometry y="26" width="220" height="140" as="geometry" />
        </mxCell>
        <mxCell id="jQ-A_jj9nDci3lVpJSi4-92" value="varchar(6)" style="text;align=right;verticalAlign=top;spacingLeft=4;spacingRight=4;overflow=hidden;rotatable=0;points=[[0,0.5],[1,0.5]];portConstraint=eastwest;fontStyle=0" vertex="1" parent="jQ-A_jj9nDci3lVpJSi4-91">
          <mxGeometry x="140" width="80" height="26" as="geometry" />
        </mxCell>
        <mxCell id="jQ-A_jj9nDci3lVpJSi4-93" value="í ½í´‘ codigo_disciplina" style="text;align=left;verticalAlign=top;spacingLeft=4;spacingRight=4;overflow=hidden;rotatable=0;points=[[0,0.5],[1,0.5]];portConstraint=eastwest;fontStyle=1;rounded=1;fontSize=12;" vertex="1" parent="jQ-A_jj9nDci3lVpJSi4-91">
          <mxGeometry width="140" height="26" as="geometry" />
        </mxCell>
        <mxCell id="jQ-A_jj9nDci3lVpJSi4-94" value="" style="group" vertex="1" connectable="0" parent="jQ-A_jj9nDci3lVpJSi4-91">
          <mxGeometry width="220" height="140" as="geometry" />
        </mxCell>
        <mxCell id="jQ-A_jj9nDci3lVpJSi4-97" value="" style="group" vertex="1" connectable="0" parent="jQ-A_jj9nDci3lVpJSi4-94">
          <mxGeometry y="26" width="220" height="114" as="geometry" />
        </mxCell>
        <mxCell id="jQ-A_jj9nDci3lVpJSi4-98" value="varchar(20)" style="text;align=right;verticalAlign=top;spacingLeft=4;spacingRight=4;overflow=hidden;rotatable=0;points=[[0,0.5],[1,0.5]];portConstraint=eastwest;fontStyle=0" vertex="1" parent="jQ-A_jj9nDci3lVpJSi4-97">
          <mxGeometry x="140" width="80" height="26" as="geometry" />
        </mxCell>
        <mxCell id="jQ-A_jj9nDci3lVpJSi4-99" value="í ½í´‘ nome_departamento" style="text;align=left;verticalAlign=top;spacingLeft=4;spacingRight=4;overflow=hidden;rotatable=0;points=[[0,0.5],[1,0.5]];portConstraint=eastwest;fontStyle=1;rounded=1;fontSize=12;" vertex="1" parent="jQ-A_jj9nDci3lVpJSi4-97">
          <mxGeometry width="150" height="26" as="geometry" />
        </mxCell>
        <mxCell id="jQ-A_jj9nDci3lVpJSi4-100" value="" style="group" vertex="1" connectable="0" parent="jQ-A_jj9nDci3lVpJSi4-97">
          <mxGeometry y="26" width="220" height="88" as="geometry" />
        </mxCell>
        <mxCell id="jQ-A_jj9nDci3lVpJSi4-109" value="" style="line;html=1;strokeWidth=1;align=left;verticalAlign=middle;spacingTop=-1;spacingLeft=3;spacingRight=3;rotatable=0;labelPosition=right;points=[];portConstraint=eastwest;" vertex="1" parent="jQ-A_jj9nDci3lVpJSi4-100">
          <mxGeometry y="2" width="220" height="8" as="geometry" />
        </mxCell>
        <mxCell id="jQ-A_jj9nDci3lVpJSi4-110" value="" style="group" vertex="1" connectable="0" parent="jQ-A_jj9nDci3lVpJSi4-100">
          <mxGeometry y="12" width="220" height="48.57142857142857" as="geometry" />
        </mxCell>
        <mxCell id="jQ-A_jj9nDci3lVpJSi4-111" value="varchar(20)" style="text;align=right;verticalAlign=top;spacingLeft=4;spacingRight=4;overflow=hidden;rotatable=0;points=[[0,0.5],[1,0.5]];portConstraint=eastwest;fontStyle=0" vertex="1" parent="jQ-A_jj9nDci3lVpJSi4-110">
          <mxGeometry x="140" width="80" height="29.999999999999996" as="geometry" />
        </mxCell>
        <mxCell id="jQ-A_jj9nDci3lVpJSi4-112" value="nome" style="text;align=left;verticalAlign=top;spacingLeft=4;spacingRight=4;overflow=hidden;rotatable=0;points=[[0,0.5],[1,0.5]];portConstraint=eastwest;fontStyle=1;rounded=1;fontSize=12;" vertex="1" parent="jQ-A_jj9nDci3lVpJSi4-110">
          <mxGeometry width="90" height="29.999999999999996" as="geometry" />
        </mxCell>
        <mxCell id="jQ-A_jj9nDci3lVpJSi4-113" value="" style="group" vertex="1" connectable="0" parent="jQ-A_jj9nDci3lVpJSi4-100">
          <mxGeometry y="42" width="220" height="26" as="geometry" />
        </mxCell>
        <mxCell id="jQ-A_jj9nDci3lVpJSi4-114" value="numeric(3)" style="text;align=right;verticalAlign=top;spacingLeft=4;spacingRight=4;overflow=hidden;rotatable=0;points=[[0,0.5],[1,0.5]];portConstraint=eastwest;fontStyle=0" vertex="1" parent="jQ-A_jj9nDci3lVpJSi4-113">
          <mxGeometry x="140" width="80" height="18.57142857142857" as="geometry" />
        </mxCell>
        <mxCell id="jQ-A_jj9nDci3lVpJSi4-115" value="carga_horaria" style="text;align=left;verticalAlign=top;spacingLeft=4;spacingRight=4;overflow=hidden;rotatable=0;points=[[0,0.5],[1,0.5]];portConstraint=eastwest;fontStyle=1;rounded=1;fontSize=12;" vertex="1" parent="jQ-A_jj9nDci3lVpJSi4-113">
          <mxGeometry y="8.881784197001252e-16" width="90" height="18.57142857142857" as="geometry" />
        </mxCell>
        <mxCell id="jQ-A_jj9nDci3lVpJSi4-134" value="Curso" style="swimlane;fontStyle=1;align=center;verticalAlign=top;childLayout=stackLayout;horizontal=1;startSize=26;horizontalStack=0;resizeParent=1;resizeLast=0;collapsible=1;marginBottom=0;rounded=0;shadow=0;strokeWidth=1;" vertex="1" parent="WIyWlLk6GJQsqaUBKTNV-1">
          <mxGeometry x="304" y="260" width="220" height="156" as="geometry">
            <mxRectangle x="230" y="140" width="160" height="26" as="alternateBounds" />
          </mxGeometry>
        </mxCell>
        <mxCell id="jQ-A_jj9nDci3lVpJSi4-135" value="" style="group" vertex="1" connectable="0" parent="jQ-A_jj9nDci3lVpJSi4-134">
          <mxGeometry y="26" width="220" height="130" as="geometry" />
        </mxCell>
        <mxCell id="jQ-A_jj9nDci3lVpJSi4-136" value="varchar(9)" style="text;align=right;verticalAlign=top;spacingLeft=4;spacingRight=4;overflow=hidden;rotatable=0;points=[[0,0.5],[1,0.5]];portConstraint=eastwest;fontStyle=0" vertex="1" parent="jQ-A_jj9nDci3lVpJSi4-135">
          <mxGeometry x="140" width="80" height="26" as="geometry" />
        </mxCell>
        <mxCell id="jQ-A_jj9nDci3lVpJSi4-137" value="í ½í´‘ id_curso" style="text;align=left;verticalAlign=top;spacingLeft=4;spacingRight=4;overflow=hidden;rotatable=0;points=[[0,0.5],[1,0.5]];portConstraint=eastwest;fontStyle=1;rounded=1;fontSize=12;" vertex="1" parent="jQ-A_jj9nDci3lVpJSi4-135">
          <mxGeometry width="90" height="26" as="geometry" />
        </mxCell>
        <mxCell id="jQ-A_jj9nDci3lVpJSi4-138" value="" style="group" vertex="1" connectable="0" parent="jQ-A_jj9nDci3lVpJSi4-135">
          <mxGeometry width="220" height="130" as="geometry" />
        </mxCell>
        <mxCell id="jQ-A_jj9nDci3lVpJSi4-139" value="varchar(9)" style="text;align=right;verticalAlign=top;spacingLeft=4;spacingRight=4;overflow=hidden;rotatable=0;points=[[0,0.5],[1,0.5]];portConstraint=eastwest;fontStyle=0" vertex="1" parent="jQ-A_jj9nDci3lVpJSi4-138">
          <mxGeometry x="140" width="80" height="26" as="geometry" />
        </mxCell>
        <mxCell id="jQ-A_jj9nDci3lVpJSi4-140" value="í ½í´‘ id_curso" style="text;align=left;verticalAlign=top;spacingLeft=4;spacingRight=4;overflow=hidden;rotatable=0;points=[[0,0.5],[1,0.5]];portConstraint=eastwest;fontStyle=1;rounded=1;fontSize=12;" vertex="1" parent="jQ-A_jj9nDci3lVpJSi4-138">
          <mxGeometry width="90" height="26" as="geometry" />
        </mxCell>
        <mxCell id="jQ-A_jj9nDci3lVpJSi4-141" value="" style="group" vertex="1" connectable="0" parent="jQ-A_jj9nDci3lVpJSi4-138">
          <mxGeometry y="26" width="220" height="104" as="geometry" />
        </mxCell>
        <mxCell id="jQ-A_jj9nDci3lVpJSi4-144" value="" style="group" vertex="1" connectable="0" parent="jQ-A_jj9nDci3lVpJSi4-141">
          <mxGeometry y="-2" width="220" height="86" as="geometry" />
        </mxCell>
        <mxCell id="jQ-A_jj9nDci3lVpJSi4-145" value="varchar(20)" style="text;align=right;verticalAlign=top;spacingLeft=4;spacingRight=4;overflow=hidden;rotatable=0;points=[[0,0.5],[1,0.5]];portConstraint=eastwest;fontStyle=0" vertex="1" parent="jQ-A_jj9nDci3lVpJSi4-144">
          <mxGeometry x="140" width="80" height="26" as="geometry" />
        </mxCell>
        <mxCell id="jQ-A_jj9nDci3lVpJSi4-146" value="í ½í´‘ nome_departamento" style="text;align=left;verticalAlign=top;spacingLeft=4;spacingRight=4;overflow=hidden;rotatable=0;points=[[0,0.5],[1,0.5]];portConstraint=eastwest;fontStyle=1;rounded=1;fontSize=12;" vertex="1" parent="jQ-A_jj9nDci3lVpJSi4-144">
          <mxGeometry width="150" height="26" as="geometry" />
        </mxCell>
        <mxCell id="jQ-A_jj9nDci3lVpJSi4-153" value="" style="line;html=1;strokeWidth=1;align=left;verticalAlign=middle;spacingTop=-1;spacingLeft=3;spacingRight=3;rotatable=0;labelPosition=right;points=[];portConstraint=eastwest;" vertex="1" parent="jQ-A_jj9nDci3lVpJSi4-144">
          <mxGeometry y="26" width="220" height="8" as="geometry" />
        </mxCell>
        <mxCell id="jQ-A_jj9nDci3lVpJSi4-154" value="" style="group" vertex="1" connectable="0" parent="jQ-A_jj9nDci3lVpJSi4-144">
          <mxGeometry y="40" width="220" height="30" as="geometry" />
        </mxCell>
        <mxCell id="jQ-A_jj9nDci3lVpJSi4-155" value="varchar(20)" style="text;align=right;verticalAlign=top;spacingLeft=4;spacingRight=4;overflow=hidden;rotatable=0;points=[[0,0.5],[1,0.5]];portConstraint=eastwest;fontStyle=0" vertex="1" parent="jQ-A_jj9nDci3lVpJSi4-154">
          <mxGeometry x="130" width="90" height="30" as="geometry" />
        </mxCell>
        <mxCell id="jQ-A_jj9nDci3lVpJSi4-156" value="nome" style="text;align=left;verticalAlign=top;spacingLeft=4;spacingRight=4;overflow=hidden;rotatable=0;points=[[0,0.5],[1,0.5]];portConstraint=eastwest;fontStyle=1;rounded=1;fontSize=12;" vertex="1" parent="jQ-A_jj9nDci3lVpJSi4-154">
          <mxGeometry width="90" height="29.999999999999996" as="geometry" />
        </mxCell>
        <mxCell id="jQ-A_jj9nDci3lVpJSi4-157" value="" style="group" vertex="1" connectable="0" parent="jQ-A_jj9nDci3lVpJSi4-144">
          <mxGeometry y="70" width="220" height="26" as="geometry" />
        </mxCell>
        <mxCell id="jQ-A_jj9nDci3lVpJSi4-158" value="numeric(2)" style="text;align=right;verticalAlign=top;spacingLeft=4;spacingRight=4;overflow=hidden;rotatable=0;points=[[0,0.5],[1,0.5]];portConstraint=eastwest;fontStyle=0" vertex="1" parent="jQ-A_jj9nDci3lVpJSi4-157">
          <mxGeometry x="140" width="80" height="18.57142857142857" as="geometry" />
        </mxCell>
        <mxCell id="jQ-A_jj9nDci3lVpJSi4-159" value="faltas" style="text;align=left;verticalAlign=top;spacingLeft=4;spacingRight=4;overflow=hidden;rotatable=0;points=[[0,0.5],[1,0.5]];portConstraint=eastwest;fontStyle=1;rounded=1;fontSize=12;" vertex="1" parent="jQ-A_jj9nDci3lVpJSi4-157">
          <mxGeometry width="90" height="18.57142857142857" as="geometry" />
        </mxCell>
      </root>
    </mxGraphModel>
  </diagram>
</mxfile>
